<!-- Generator: Adobe Illustrator 19.0.0, SVG Export Plug-In  -->
<svg version="1.1"
	 xmlns="http://www.w3.org/2000/svg" xmlns:xlink="http://www.w3.org/1999/xlink" xmlns:a="http://ns.adobe.com/AdobeSVGViewerExtensions/3.0/"
	 x="0px" y="0px" width="17.7px" height="30px" viewBox="0 0 17.7 30" enable-background="new 0 0 17.7 30" xml:space="preserve">
<defs>
</defs>
<g>
	<path fill="#E51F82" d="M15.6,0H2.1C0.9,0,0,0.9,0,2.1v6.5v12.9v6.5C0,29.1,0.9,30,2.1,30h13.6c1.1,0,2.1-0.9,2.1-2.1v-6.5V8.6V2.1
		C17.7,0.9,16.8,0,15.6,0z M5,27.6H2.8c-0.4,0-0.7-0.3-0.7-0.7c0-0.4,0.3-0.7,0.7-0.7H5c0.4,0,0.7,0.3,0.7,0.7
		C5.7,27.3,5.4,27.6,5,27.6z M5,24.8H2.8c-0.4,0-0.7-0.3-0.7-0.7s0.3-0.7,0.7-0.7H5c0.4,0,0.7,0.3,0.7,0.7S5.4,24.8,5,24.8z M5,22
		H2.8C2.4,22,2,21.7,2,21.3c0-0.4,0.3-0.7,0.7-0.7H5c0.4,0,0.7,0.3,0.7,0.7C5.7,21.7,5.4,22,5,22z M5,19.2H2.8
		c-0.4,0-0.7-0.3-0.7-0.7s0.3-0.7,0.7-0.7H5c0.4,0,0.7,0.3,0.7,0.7S5.4,19.2,5,19.2z M10,27.6H7.7c-0.4,0-0.7-0.3-0.7-0.7
		c0-0.4,0.3-0.7,0.7-0.7H10c0.4,0,0.7,0.3,0.7,0.7C10.7,27.3,10.4,27.6,10,27.6z M10,24.8H7.7c-0.4,0-0.7-0.3-0.7-0.7
		s0.3-0.7,0.7-0.7H10c0.4,0,0.7,0.3,0.7,0.7S10.4,24.8,10,24.8z M10,22H7.7C7.3,22,7,21.7,7,21.3c0-0.4,0.3-0.7,0.7-0.7H10
		c0.4,0,0.7,0.3,0.7,0.7C10.7,21.7,10.4,22,10,22z M10,19.2H7.7c-0.4,0-0.7-0.3-0.7-0.7s0.3-0.7,0.7-0.7H10c0.4,0,0.7,0.3,0.7,0.7
		S10.4,19.2,10,19.2z M14.9,27.6h-2.2c-0.4,0-0.7-0.3-0.7-0.7c0-0.4,0.3-0.7,0.7-0.7h2.2c0.4,0,0.7,0.3,0.7,0.7
		C15.7,27.3,15.3,27.6,14.9,27.6z M14.9,24.8h-2.2c-0.4,0-0.7-0.3-0.7-0.7s0.3-0.7,0.7-0.7h2.2c0.4,0,0.7,0.3,0.7,0.7
		S15.3,24.8,14.9,24.8z M14.9,22h-2.2c-0.4,0-0.7-0.3-0.7-0.7c0-0.4,0.3-0.7,0.7-0.7h2.2c0.4,0,0.7,0.3,0.7,0.7
		C15.7,21.7,15.3,22,14.9,22z M14.9,19.2h-2.2c-0.4,0-0.7-0.3-0.7-0.7s0.3-0.7,0.7-0.7h2.2c0.4,0,0.7,0.3,0.7,0.7
		S15.3,19.2,14.9,19.2z M15.7,16H2V2.4h13.7V16z"/>
</g>
</svg>