<!-- Generator: Adobe Illustrator 19.0.0, SVG Export Plug-In  -->
<svg version="1.1"
	 xmlns="http://www.w3.org/2000/svg" xmlns:xlink="http://www.w3.org/1999/xlink" xmlns:a="http://ns.adobe.com/AdobeSVGViewerExtensions/3.0/"
	 x="0px" y="0px" width="28.7px" height="30px" viewBox="0 0 28.7 30" enable-background="new 0 0 28.7 30" xml:space="preserve">
<defs>
</defs>
<g>
	<g id="Layer_5_1_">
		<g>
			<g>
				<path fill="#E51F82" d="M21.7,8h-7.5c-0.2,0-0.4-0.2-0.4-0.4s0.2-0.4,0.4-0.4h7.5c0.2,0,0.4,0.2,0.4,0.4S21.9,8,21.7,8z"/>
			</g>
			<g>
				<path fill="#E51F82" d="M18.2,5.6h-4c-0.2,0-0.4-0.2-0.4-0.4s0.2-0.4,0.4-0.4h4c0.2,0,0.4,0.2,0.4,0.4S18.5,5.6,18.2,5.6z"/>
			</g>
			<g>
				<g>
					<path fill="#E51F82" d="M8,28.6c0,0.7-0.6,1.4-1.3,1.4H1.3C0.6,30,0,29.4,0,28.6c0,0,0.2-7.9,0.2-11C0.2,14.6,0,6.8,0,6.8
						c0-0.7,0.6-1.4,1.3-1.4h5.4c0.7,0,1.3,0.6,1.3,1.4c0,0-0.2,7.8-0.2,10.8C7.8,20.7,8,28.6,8,28.6z"/>
				</g>
				<g>
					<path fill="#E51F82" d="M27.6,5.5l-1,0c-0.2,0-0.3-0.3-0.3-0.4c-0.1-0.4-0.3-0.8-0.6-1l-4.3-3.6c-0.4-0.3-1-0.5-1.4-0.5h-6.9
						c-0.6,0-1.1,0.5-1.1,1.1v4c0,0,0,0.4-0.3,0.4c-0.2,0-0.9,0-0.9,0C10,5.5,9.5,6,9.5,6.6v22.3c0,0.6,0.5,1.1,1.1,1.1h16.9
						c0.6,0,1.1-0.5,1.1-1.1V6.6C28.7,6,28.2,5.5,27.6,5.5z M21,1.6c0-0.2,0.2,0,0.2,0l3.6,3.1c0,0,0.2,0.1-0.1,0.1
						c-0.9,0-3.4,0-3.4,0c-0.2,0-0.3-0.1-0.3-0.3C21,4.4,21,2.3,21,1.6z M12.6,1.1c0-0.2,0.1-0.3,0.3-0.3h6.9c0.3,0,0.4,0.2,0.4,0.3
						v3.3c0,0.6,0.5,1.1,1.1,1.1h4c0.2,0,0.2,0.2,0.2,0.2v6.2c0,0.2-0.2,0.2-0.2,0.2H12.8c0,0-0.2,0-0.2-0.2V1.1z M15.9,26.8
						c0,0.4-0.3,0.7-0.7,0.7h-2.4c-0.4,0-0.7-0.3-0.7-0.7v-2c0-0.4,0.3-0.7,0.7-0.7h2.4c0.4,0,0.7,0.3,0.7,0.7V26.8z M15.9,22.4
						c0,0.4-0.3,0.7-0.7,0.7h-2.4c-0.4,0-0.7-0.3-0.7-0.7v-2c0-0.4,0.3-0.7,0.7-0.7h2.4c0.4,0,0.7,0.3,0.7,0.7V22.4z M15.9,18
						c0,0.4-0.3,0.7-0.7,0.7h-2.4c-0.4,0-0.7-0.3-0.7-0.7v-2c0-0.4,0.3-0.7,0.7-0.7h2.4c0.4,0,0.7,0.3,0.7,0.7V18z M21,26.8
						c0,0.4-0.3,0.7-0.7,0.7h-2.4c-0.4,0-0.7-0.3-0.7-0.7v-2c0-0.4,0.3-0.7,0.7-0.7h2.4c0.4,0,0.7,0.3,0.7,0.7V26.8z M21,22.4
						c0,0.4-0.3,0.7-0.7,0.7h-2.4c-0.4,0-0.7-0.3-0.7-0.7v-2c0-0.4,0.3-0.7,0.7-0.7h2.4c0.4,0,0.7,0.3,0.7,0.7V22.4z M21,18
						c0,0.4-0.3,0.7-0.7,0.7h-2.4c-0.4,0-0.7-0.3-0.7-0.7v-2c0-0.4,0.3-0.7,0.7-0.7h2.4c0.4,0,0.7,0.3,0.7,0.7V18z M26,26.8
						c0,0.4-0.3,0.7-0.7,0.7H23c-0.4,0-0.7-0.3-0.7-0.7v-2c0-0.4,0.3-0.7,0.7-0.7h2.4c0.4,0,0.7,0.3,0.7,0.7V26.8z M26,22.4
						c0,0.4-0.3,0.7-0.7,0.7H23c-0.4,0-0.7-0.3-0.7-0.7v-2c0-0.4,0.3-0.7,0.7-0.7h2.4c0.4,0,0.7,0.3,0.7,0.7V22.4z M26,18
						c0,0.4-0.3,0.7-0.7,0.7H23c-0.4,0-0.7-0.3-0.7-0.7v-2c0-0.4,0.3-0.7,0.7-0.7h2.4c0.4,0,0.7,0.3,0.7,0.7V18z"/>
				</g>
			</g>
		</g>
	</g>
</g>
</svg>
