<!-- Generator: Adobe Illustrator 19.0.0, SVG Export Plug-In  -->
<svg version="1.1"
	 xmlns="http://www.w3.org/2000/svg" xmlns:xlink="http://www.w3.org/1999/xlink" xmlns:a="http://ns.adobe.com/AdobeSVGViewerExtensions/3.0/"
	 x="0px" y="0px" width="30px" height="28.1px" viewBox="0 0 30 28.1" enable-background="new 0 0 30 28.1" xml:space="preserve">
<defs>
</defs>
<g>
	<path fill="#E51F82" d="M16.6,0C12.1,0,8.1,2.3,5.7,5.7C6.2,6,6.7,6.5,7.2,7c1.8-2.7,4.7-4.6,8.1-5l1.4,2.3L18,2
		c5.2,0.6,9.3,4.8,9.9,9.9l-2.3,1.4l2.3,1.4c-0.4,3.5-2.4,6.5-5.2,8.3c0.2,0.4,0.3,0.8,0.3,1.3c0,0.3,0,0.6-0.1,0.9
		c4.2-2.3,7.1-6.7,7.1-11.8C30,6,24,0,16.6,0z M20,22c-3.1-2.5-3.9-1.3-5.3,0.1c-1,1-3.4-1.1-5.6-3.2C7,16.8,5,14.4,5.9,13.4
		C7.3,12,8.5,11.1,6.1,8C3.6,5,1.9,7.3,0.6,8.7c-1.6,1.6-0.1,7.4,5.7,13.1c5.8,5.8,11.6,7.2,13.1,5.7C20.8,26.1,23.1,24.5,20,22z
		 M10.7,15.5c0-2.7,3.2-3.2,3.2-4.3c0-0.5-0.4-0.7-0.8-0.7c-0.7,0-1.1,0.8-1.1,0.8l-1.3-0.9c0,0,0.7-1.6,2.6-1.6
		c1.2,0,2.5,0.7,2.5,2.3c0,2.3-3,2.8-3,3.7h3.2v1.6h-5.1C10.7,16,10.7,15.7,10.7,15.5z M16.6,13.4l2.9-4.5h2.2V13h0.9v1.5h-0.9v1.8
		h-1.8v-1.8h-3.3L16.6,13.4L16.6,13.4z M19.9,13v-1.7c0-0.4,0.1-0.8,0.1-0.8h0c0,0-0.2,0.5-0.4,0.8l-1.1,1.7v0L19.9,13L19.9,13z"/>
</g>
</svg>