<!-- Generator: Adobe Illustrator 19.0.0, SVG Export Plug-In  -->
<svg version="1.1"
	 xmlns="http://www.w3.org/2000/svg" xmlns:xlink="http://www.w3.org/1999/xlink" xmlns:a="http://ns.adobe.com/AdobeSVGViewerExtensions/3.0/"
	 x="0px" y="0px" width="62px" height="62px" viewBox="0 0 62 62" style="enable-background:new 0 0 62 62;" xml:space="preserve">
<style type="text/css">
	.st0{fill:#DDDDDD;}
</style>
<defs>
</defs>
<g>
	<g id="_x34__2_">
		<g>
			<path class="st0" d="M61.4,58.6l-16-15.8c4.2-4.6,6.8-10.6,6.8-17.2C52.2,11.5,40.5,0,26.1,0S0,11.5,0,25.7s11.7,25.7,26.1,25.7
				c6.2,0,11.9-2.2,16.4-5.7l16.1,15.8c0.8,0.8,2.1,0.8,2.8,0C62.2,60.6,62.2,59.4,61.4,58.6z M26.1,47.4C13.9,47.4,4,37.7,4,25.7
				S13.9,3.9,26.1,3.9c12.2,0,22.1,9.7,22.1,21.7S38.3,47.4,26.1,47.4z"/>
		</g>
	</g>
</g>
</svg>
