<!-- Generator: Adobe Illustrator 19.0.0, SVG Export Plug-In  -->
<svg version="1.1"
	 xmlns="http://www.w3.org/2000/svg" xmlns:xlink="http://www.w3.org/1999/xlink" xmlns:a="http://ns.adobe.com/AdobeSVGViewerExtensions/3.0/"
	 x="0px" y="0px" width="30px" height="21.8px" viewBox="0 0 30 21.8" enable-background="new 0 0 30 21.8" xml:space="preserve">
<defs>
</defs>
<g>
	<g>
		<path fill="#6D6E70" d="M29,0H1C0.5,0,0,0.5,0,1v19.8c0,0.6,0.5,1,1,1h28c0.6,0,1-0.5,1-1V1C30,0.5,29.5,0,29,0z M28,19.8H2V2H28
			V19.8z"/>
		<path fill="#6D6E70" d="M4.7,6.8l9.8,6c0.2,0.1,0.3,0.2,0.5,0.2s0.4-0.1,0.5-0.2l9.8-6c0.5-0.3,0.6-0.9,0.3-1.4
			c-0.3-0.5-0.9-0.6-1.4-0.3L15,10.8L5.8,5.1C5.3,4.8,4.7,4.9,4.4,5.4C4.1,5.9,4.2,6.5,4.7,6.8z"/>
	</g>
</g>
</svg>
