<?xml version="1.0" encoding="utf-8"?>
<!-- Generator: Adobe Illustrator 18.0.0, SVG Export Plug-In . SVG Version: 6.00 Build 0)  -->
<!DOCTYPE svg PUBLIC "-//W3C//DTD SVG 1.1//EN" "http://www.w3.org/Graphics/SVG/1.1/DTD/svg11.dtd">
<svg version="1.1" id="Layer_1" xmlns="http://www.w3.org/2000/svg" xmlns:xlink="http://www.w3.org/1999/xlink" x="0px" y="0px"
	 viewBox="0 0 166.3 102.3" enable-background="new 0 0 166.3 102.3" xml:space="preserve">
<g>
	<g>
		<g>
		</g>
	</g>
	<g>
		<polygon fill="#E51F82" points="125.9,25.7 131,25.7 131,42.2 146.3,25.7 152.7,25.7 137,42.9 156.9,61.8 149.9,61.8 131,43.9 
			131,61.8 125.9,61.8 		"/>
	</g>
	<ellipse fill="none" cx="104" cy="43.7" rx="14.5" ry="14"/>
	<g>
		<path fill="none" d="M41.4,53.2c-1.3,1-2.5,1.5-3.5,1.5C38.9,54.7,40.1,54.2,41.4,53.2c3.8-3.1,13.7-13.9,19-19.4c0,0,0,0,0,0
			C55.1,39.3,45.2,50,41.4,53.2z"/>
		<path fill="none" d="M37.2,24.8l-9,16L37.2,24.8c0.9-1.2-3-3.5-5.4-3.5C34.2,21.3,38.1,23.6,37.2,24.8z"/>
		<path fill="none" d="M57.2,59.1c-1.1,0.7-2.2,1-3.2,1.1C55,60.1,56.1,59.7,57.2,59.1z"/>
		<path fill="none" d="M23.1,55.9c-1.4,1.5-3,2.1-4.3,2.1C20.1,58.1,21.8,57.4,23.1,55.9c6.3-6.7,12.2-15.5,20.2-24.4c0,0,0,0,0,0
			C35.3,40.4,29.4,49.2,23.1,55.9z"/>
		<ellipse fill="none" cx="104" cy="43.7" rx="14.5" ry="14"/>
		<g>
			<path fill="none" d="M71.3,24.5c1.2-4.7-3.9-7.1-7.7-3.3c-3.3,3.3-11,12.8-21.7,24c3.3-6.9,6.9-14.6,8-17.8
				c1.4-5.2-3.7-6.4-6.3-4.8c-1.5,1-8,9.6-15.4,18.2l9-16c0.9-1.2-3-3.5-5.4-3.5c-1.1,0-1.9,0.4-1.9,1.6
				c0.2,4.3-10.8,24.1-13.3,29.6C15,56.1,16.5,58,18.7,58c1.3,0,3-0.7,4.3-2.1c6.3-6.7,12.5-15.5,20.2-24.4
				c-2.6,5.6-7.1,13.9-8.2,17.7c-1,3.3,0.5,5.5,2.8,5.4c1,0,2.3-0.5,3.5-1.5c3.8-3.1,13.7-13.9,19-19.4c-5.5,8.4-9.7,17.4-10.7,21.2
				c-0.8,2.9,1.4,5.3,4.4,5.2c1-0.1,2.1-0.4,3.2-1.1l23.1-14.6v-6.2c-1,0.8-19.5,12.3-23.5,14.2C61.8,42,69.7,31.3,71.3,24.5z"/>
			<ellipse fill="none" cx="104" cy="43.7" rx="14.5" ry="14"/>
			<path fill="#E51F82" d="M104,25.1c-6.9,0-13,3.4-16.5,8.6l-7.2,4.5V14.3c0-4.7-3.8-8.6-8.6-8.6H17.9c-4.7,0-8.6,3.8-8.6,8.6v50.8
				c0,4.7,3.8,8.6,8.6,8.6h53.8c4.7,0,8.6-3.8,8.6-8.6V44.6l4.1-2.5c-0.1,0.5,0,1.1,0,1.7c0,10.3,8.7,18.6,19.5,18.6
				c10.8,0,19.5-8.3,19.5-18.6C123.4,33.4,114.7,25.1,104,25.1z M80.3,44.5L57.2,59.1c-1.1,0.7-2.2,1-3.2,1.1
				c-3,0.2-5.2-2.2-4.4-5.2c1.1-3.8,5.2-12.8,10.7-21.2c-5.3,5.5-15.1,16.3-19,19.4c-1.3,1-2.5,1.5-3.5,1.5c-2.3,0-3.7-2.1-2.8-5.4
				c1.1-3.8,5.6-12.1,8.2-17.7c-7.7,8.9-13.9,17.7-20.2,24.4c-1.4,1.5-3,2.1-4.3,2.1c-2.2,0-3.7-2-2.1-5.6
				c2.5-5.5,13.5-25.3,13.3-29.6c-0.1-1.2,0.8-1.6,1.9-1.6c2.4,0.1,6.3,2.3,5.4,3.5l-9,16c7.4-8.6,13.9-17.2,15.4-18.2
				c2.5-1.7,7.7-0.4,6.3,4.8c-1.1,3.3-4.7,10.9-8,17.8c10.7-11.2,18.4-20.8,21.7-24c3.8-3.7,8.8-1.4,7.7,3.3
				c-1.6,6.7-9.6,17.5-14.5,27.9c4-1.8,22.5-13.3,23.5-14.2V44.5z M104,57.8c-8,0-14.5-6.3-14.5-14c0-7.7,6.5-14,14.5-14
				c8,0,14.5,6.3,14.5,14C118.5,51.5,112,57.8,104,57.8z"/>
		</g>
	</g>
	<polygon fill-rule="evenodd" clip-rule="evenodd" fill="#6D6E70" points="15.9,96.3 15.9,80.2 20.7,80.2 23.7,91.2 26.5,80.2 
		31.4,80.2 31.4,96.3 28.4,96.3 28.4,83.6 25.2,96.3 22.1,96.3 18.9,83.6 18.9,96.3 	"/>
	<path fill-rule="evenodd" clip-rule="evenodd" fill="#6D6E70" d="M42.2,96.3v-1.7c-0.4,0.6-1,1.1-1.7,1.5c-0.7,0.4-1.4,0.5-2.2,0.5
		c-0.8,0-1.5-0.2-2.1-0.5c-0.6-0.3-1.1-0.8-1.3-1.4c-0.3-0.6-0.4-1.5-0.4-2.6v-7.3h3.1V90c0,1.6,0.1,2.6,0.2,3
		c0.1,0.4,0.3,0.7,0.6,0.9c0.3,0.2,0.7,0.3,1.1,0.3c0.5,0,1-0.1,1.4-0.4c0.4-0.3,0.7-0.6,0.9-1.1c0.2-0.4,0.2-1.5,0.2-3.1v-4.9h3.1
		v11.6H42.2z"/>
	<rect x="48.3" y="80.2" fill-rule="evenodd" clip-rule="evenodd" fill="#6D6E70" width="3.1" height="16"/>
	<path fill-rule="evenodd" clip-rule="evenodd" fill="#6D6E70" d="M59.8,84.6v2.4h-2.1v4.7c0,0.9,0,1.5,0.1,1.7
		c0,0.2,0.1,0.3,0.3,0.4c0.1,0.1,0.3,0.2,0.5,0.2c0.3,0,0.7-0.1,1.2-0.3l0.3,2.4c-0.7,0.3-1.5,0.5-2.4,0.5c-0.6,0-1.1-0.1-1.5-0.3
		c-0.4-0.2-0.8-0.4-1-0.7c-0.2-0.3-0.3-0.7-0.4-1.2c-0.1-0.4-0.1-1.1-0.1-2.2v-5.1h-1.4v-2.4h1.4v-2.3l3.1-1.8v4.1H59.8z"/>
	<path fill-rule="evenodd" clip-rule="evenodd" fill="#6D6E70" d="M61.9,83.1v-2.8H65v2.8H61.9z M61.9,96.3V84.6H65v11.6H61.9z"/>
	<path fill-rule="evenodd" clip-rule="evenodd" fill="#6D6E70" d="M67.6,91.1l2-0.2c0.1,0.8,0.3,1.5,0.7,2c0.3,0.5,0.9,0.9,1.6,1.2
		c0.7,0.3,1.5,0.5,2.5,0.5c0.8,0,1.5-0.1,2.1-0.4c0.6-0.2,1.1-0.6,1.4-1c0.3-0.4,0.5-0.9,0.5-1.4c0-0.5-0.1-0.9-0.4-1.3
		c-0.3-0.4-0.8-0.7-1.4-1c-0.4-0.2-1.4-0.4-2.9-0.8c-1.5-0.4-2.5-0.7-3.1-1c-0.8-0.4-1.3-0.9-1.7-1.5c-0.4-0.6-0.6-1.3-0.6-2
		c0-0.8,0.2-1.6,0.7-2.3c0.5-0.7,1.1-1.2,2-1.6c0.9-0.4,1.9-0.5,2.9-0.5c1.2,0,2.2,0.2,3.1,0.6c0.9,0.4,1.6,0.9,2.1,1.7
		c0.5,0.7,0.8,1.6,0.8,2.5l-2,0.2c-0.1-1-0.5-1.8-1.1-2.3c-0.6-0.5-1.6-0.8-2.8-0.8c-1.3,0-2.2,0.2-2.8,0.7c-0.6,0.5-0.9,1-0.9,1.7
		c0,0.6,0.2,1,0.6,1.4c0.4,0.4,1.5,0.8,3.2,1.1c1.7,0.4,2.9,0.7,3.6,1c0.9,0.4,1.6,1,2.1,1.6c0.4,0.7,0.7,1.4,0.7,2.3
		c0,0.9-0.2,1.7-0.7,2.4c-0.5,0.8-1.2,1.3-2.1,1.8c-0.9,0.4-1.9,0.6-3.1,0.6c-1.5,0-2.7-0.2-3.7-0.6c-1-0.4-1.7-1.1-2.3-1.9
		C67.9,93.1,67.6,92.2,67.6,91.1z"/>
	<path fill-rule="evenodd" clip-rule="evenodd" fill="#6D6E70" d="M90.9,92.5l2,0.3c-0.3,1.2-0.9,2.1-1.8,2.8c-0.9,0.7-2,1-3.3,1
		c-1.7,0-3-0.5-4-1.6c-1-1-1.5-2.5-1.5-4.4c0-2,0.5-3.5,1.5-4.5c1-1.1,2.3-1.6,3.9-1.6c1.6,0,2.8,0.5,3.8,1.6c1,1.1,1.5,2.5,1.5,4.5
		c0,0.1,0,0.3,0,0.5h-8.7c0.1,1.3,0.4,2.3,1.1,2.9c0.6,0.7,1.5,1,2.4,1c0.7,0,1.3-0.2,1.8-0.6C90.2,94,90.6,93.3,90.9,92.5z
		 M84.5,89.3h6.5c-0.1-1-0.3-1.7-0.7-2.2c-0.6-0.8-1.4-1.1-2.4-1.1c-0.9,0-1.7,0.3-2.3,0.9C84.9,87.5,84.5,88.3,84.5,89.3z"/>
	<path fill-rule="evenodd" clip-rule="evenodd" fill="#6D6E70" d="M95.4,96.3V84.6h1.8v1.8c0.5-0.8,0.9-1.4,1.2-1.6
		c0.4-0.3,0.8-0.4,1.3-0.4c0.7,0,1.3,0.2,2,0.6l-0.7,1.8c-0.5-0.3-1-0.4-1.4-0.4c-0.4,0-0.8,0.1-1.2,0.4c-0.3,0.3-0.6,0.6-0.7,1.1
		c-0.2,0.7-0.3,1.5-0.3,2.3v6.1H95.4z"/>
	<path fill-rule="evenodd" clip-rule="evenodd" fill="#6D6E70" d="M106.1,96.3l-4.4-11.6h2.1l2.5,7c0.3,0.8,0.5,1.5,0.7,2.3
		c0.2-0.6,0.4-1.3,0.7-2.2l2.6-7.1h2l-4.4,11.6H106.1z"/>
	<path fill-rule="evenodd" clip-rule="evenodd" fill="#6D6E70" d="M114.1,82.5v-2.3h2v2.3H114.1z M114.1,96.3V84.6h2v11.6H114.1z"/>
	<path fill-rule="evenodd" clip-rule="evenodd" fill="#6D6E70" d="M126.6,92l1.9,0.3c-0.2,1.3-0.8,2.4-1.6,3.1
		c-0.9,0.8-1.9,1.1-3.2,1.1c-1.6,0-2.9-0.5-3.8-1.6c-1-1-1.4-2.5-1.4-4.5c0-1.3,0.2-2.4,0.6-3.3c0.4-0.9,1-1.6,1.9-2.1
		c0.9-0.5,1.8-0.7,2.8-0.7c1.3,0,2.3,0.3,3.1,1c0.8,0.6,1.3,1.5,1.5,2.7l-1.9,0.3c-0.2-0.8-0.5-1.4-1-1.8c-0.5-0.4-1-0.6-1.7-0.6
		c-1,0-1.8,0.4-2.4,1.1c-0.6,0.7-0.9,1.8-0.9,3.4c0,1.6,0.3,2.7,0.9,3.4c0.6,0.7,1.4,1.1,2.3,1.1c0.8,0,1.4-0.2,1.9-0.7
		C126.2,93.7,126.5,93,126.6,92z"/>
	<path fill-rule="evenodd" clip-rule="evenodd" fill="#6D6E70" d="M130.3,82.5v-2.3h2v2.3H130.3z M130.3,96.3V84.6h2v11.6H130.3z"/>
	<path fill-rule="evenodd" clip-rule="evenodd" fill="#6D6E70" d="M134.5,90.4c0-2.2,0.6-3.7,1.8-4.8c1-0.9,2.2-1.3,3.7-1.3
		c1.6,0,2.9,0.5,3.9,1.6c1,1,1.5,2.5,1.5,4.3c0,1.5-0.2,2.7-0.7,3.5c-0.4,0.9-1.1,1.5-2,2c-0.9,0.5-1.8,0.7-2.8,0.7
		c-1.6,0-2.9-0.5-3.9-1.6C135,93.9,134.5,92.4,134.5,90.4z M136.5,90.4c0,1.5,0.3,2.6,1,3.3c0.6,0.7,1.5,1.1,2.4,1.1
		c1,0,1.8-0.4,2.4-1.1c0.6-0.7,1-1.9,1-3.4c0-1.4-0.3-2.5-1-3.3c-0.6-0.7-1.5-1.1-2.4-1.1c-1,0-1.8,0.4-2.4,1.1
		C136.8,87.8,136.5,89,136.5,90.4z"/>
	<path fill-rule="evenodd" clip-rule="evenodd" fill="#6D6E70" d="M146.9,92.8l1.9-0.3c0.1,0.8,0.4,1.4,0.9,1.8
		c0.5,0.4,1.2,0.6,2.1,0.6c0.9,0,1.6-0.2,2-0.5c0.4-0.4,0.7-0.8,0.7-1.3c0-0.4-0.2-0.8-0.6-1c-0.3-0.2-0.9-0.4-2-0.7
		c-1.4-0.4-2.4-0.7-3-0.9c-0.6-0.3-1-0.6-1.3-1.1c-0.3-0.5-0.4-1-0.4-1.6c0-0.5,0.1-1,0.3-1.4c0.2-0.4,0.6-0.8,1-1.1
		c0.3-0.2,0.7-0.4,1.2-0.6c0.5-0.2,1.1-0.2,1.7-0.2c0.9,0,1.7,0.1,2.4,0.4c0.7,0.3,1.2,0.6,1.5,1.1c0.3,0.4,0.6,1,0.7,1.8l-1.9,0.3
		c-0.1-0.6-0.3-1.1-0.8-1.4c-0.4-0.3-1-0.5-1.8-0.5c-0.9,0-1.5,0.1-1.9,0.4c-0.4,0.3-0.6,0.6-0.6,1c0,0.3,0.1,0.5,0.2,0.7
		c0.2,0.2,0.4,0.4,0.8,0.5c0.2,0.1,0.8,0.2,1.7,0.5c1.4,0.4,2.4,0.7,2.9,0.9c0.6,0.2,1,0.6,1.3,1c0.3,0.5,0.5,1,0.5,1.7
		c0,0.7-0.2,1.3-0.6,1.9c-0.4,0.6-0.9,1-1.7,1.3c-0.7,0.3-1.5,0.5-2.4,0.5c-1.5,0-2.7-0.3-3.5-0.9C147.6,94.9,147.1,94,146.9,92.8z"
		/>
</g>
</svg>
