<!-- Generator: Adobe Illustrator 19.0.0, SVG Export Plug-In  -->
<svg version="1.1"
	 xmlns="http://www.w3.org/2000/svg" xmlns:xlink="http://www.w3.org/1999/xlink" xmlns:a="http://ns.adobe.com/AdobeSVGViewerExtensions/3.0/"
	 x="0px" y="0px" width="21px" height="21px" viewBox="0 0 21 21" enable-background="new 0 0 21 21" xml:space="preserve">
<defs>
</defs>
<g>
	<g id="_x34__2_">
		<g>
			<path fill="#E51F82" d="M20.8,19.9l-5.4-5.3c1.4-1.5,2.3-3.6,2.3-5.8c0-4.8-4-8.7-8.8-8.7S0,3.9,0,8.7s4,8.7,8.8,8.7
				c2.1,0,4-0.7,5.6-1.9l5.4,5.4c0.3,0.3,0.7,0.3,1,0C21.1,20.5,21.1,20.1,20.8,19.9z M8.8,16.1c-4.1,0-7.5-3.3-7.5-7.4
				s3.3-7.4,7.5-7.4c4.1,0,7.5,3.3,7.5,7.4S13,16.1,8.8,16.1z"/>
		</g>
	</g>
</g>
</svg>
