<!-- Generator: Adobe Illustrator 19.0.0, SVG Export Plug-In  -->
<svg version="1.1"
	 xmlns="http://www.w3.org/2000/svg" xmlns:xlink="http://www.w3.org/1999/xlink" xmlns:a="http://ns.adobe.com/AdobeSVGViewerExtensions/3.0/"
	 x="0px" y="0px" width="31.7px" height="31.7px" viewBox="0 0 31.7 31.7" style="enable-background:new 0 0 31.7 31.7;"
	 xml:space="preserve">
<style type="text/css">
	.st0{fill:#E51F82;}
	.st1{fill:none;stroke:#E51F82;stroke-miterlimit:10;}
</style>
<defs>
</defs>
<g>
	<g id="_x34__1_">
		<g>
			<path class="st0" d="M24.1,22.8l-4-3.9c1-1.1,1.7-2.6,1.7-4.3c0-3.5-2.9-6.3-6.5-6.3S9,11.2,9,14.7s2.9,6.3,6.5,6.3
				c1.5,0,3-0.5,4.1-1.4l4,3.9c0.2,0.2,0.5,0.2,0.7,0C24.3,23.3,24.3,23,24.1,22.8z M15.4,20c-3,0-5.5-2.4-5.5-5.4s2.4-5.4,5.5-5.4
				c3,0,5.5,2.4,5.5,5.4S18.4,20,15.4,20z"/>
		</g>
	</g>
</g>
<g>
	<circle class="st1" cx="15.8" cy="15.8" r="15.3"/>
</g>
</svg>
