<?xml version="1.0" encoding="utf-8"?>
<!-- Generator: Adobe Illustrator 18.0.0, SVG Export Plug-In . SVG Version: 6.00 Build 0)  -->
<!DOCTYPE svg PUBLIC "-//W3C//DTD SVG 1.1//EN" "http://www.w3.org/Graphics/SVG/1.1/DTD/svg11.dtd">
<svg version="1.1" id="Layer_1" xmlns="http://www.w3.org/2000/svg" xmlns:xlink="http://www.w3.org/1999/xlink" x="0px" y="0px"
	 viewBox="0 0 54.4 70.9" enable-background="new 0 0 54.4 70.9" xml:space="preserve">
<g>
	<path fill="#FFFFFF" d="M29.1,60.4L27.2,65l-2.1-4.5c-1.7,0.8-2.8,2.5-2.8,4.5c0,2.7,2.2,4.9,4.9,4.9c2.7,0,4.9-2.2,4.9-4.9
		C32.1,62.9,30.9,61.2,29.1,60.4z"/>
	<path fill="#E51F82" d="M47.9,0.5H6.6c-3.6,0-6.9,2.5-6.9,6.1v38.8c0,3.6,3.3,6.1,6.9,6.1h14.6l3.6,7.9c-2,0.9-3.4,3.1-3.4,5.5
		c0,3.3,2.7,6,5.9,6s5.9-2.6,5.9-5.9c0-2.5-1.5-4.8-3.6-5.7l3.2-7.8h15.2c3.6,0,6.8-2.5,6.8-6.1V6.6C54.6,2.9,51.5,0.5,47.9,0.5z
		 M27.2,69.9c-2.7,0-4.9-2.2-4.9-4.9c0-2,1.2-3.7,2.8-4.5l2.1,4.5l1.9-4.5c1.8,0.7,3,2.5,3,4.5C32.1,67.7,29.9,69.9,27.2,69.9z
		 M54.6,29.8l-18,11.1c-3.4,2.1-6.7-0.1-5.9-3.1c0.8-2.9,4-9.8,8.2-16.2c-4,4.2-11.6,12.5-14.5,14.9c-3.1,2.5-5.9,0.7-4.8-3
		c0.9-2.9,4.3-9.3,6.3-13.6C20,26.6,15.2,33.3,10.4,38.4c-2.8,3-6.9,1.8-4.9-2.7c1.9-4.2,10.3-19.3,10.2-22.6
		c-0.1-2.9,6.6,0.1,5.6,1.5l-6.9,12.3C20,20.3,25,13.7,26.2,12.9c1.9-1.3,5.9-0.3,4.8,3.7c-0.8,2.5-3.6,8.4-6.1,13.6
		c8.2-8.6,14.1-15.9,16.6-18.4c2.9-2.8,6.7-1.1,5.9,2.6c-1.3,5.2-7.2,13.4-11,21.3c3-1.4,17.2-10.3,18.2-11V29.8z"/>
	<path fill="#FFFFFF" d="M47.4,14.4c0.9-3.6-3-5.4-5.9-2.6c-2.5,2.5-8.4,9.8-16.6,18.4c2.5-5.3,5.3-11.1,6.1-13.6
		c1.1-3.9-2.9-4.9-4.8-3.7C25,13.7,20,20.3,14.4,26.9l6.9-12.3c1-1.4-5.7-4.4-5.6-1.5c0.2,3.3-8.3,18.4-10.2,22.6
		c-2,4.4,2.1,5.6,4.9,2.7c4.8-5.1,9.6-11.9,15.4-18.6c-2,4.3-5.4,10.6-6.3,13.6c-1.1,3.7,1.7,5.5,4.8,3c2.9-2.4,10.5-10.6,14.5-14.9
		c-4.2,6.4-7.4,13.3-8.2,16.2c-0.8,3,2.5,5.2,5.9,3.1l18-11.1v-4.9c-1,0.6-15.2,9.6-18.2,11C40.2,27.8,46.1,19.6,47.4,14.4z"/>
</g>
</svg>
