<!-- Generator: Adobe Illustrator 19.0.0, SVG Export Plug-In  -->
<svg version="1.1"
	 xmlns="http://www.w3.org/2000/svg" xmlns:xlink="http://www.w3.org/1999/xlink" xmlns:a="http://ns.adobe.com/AdobeSVGViewerExtensions/3.0/"
	 x="0px" y="0px" width="43px" height="43px" viewBox="0 0 43 43" style="enable-background:new 0 0 43 43;" xml:space="preserve">
<style type="text/css">
	.st0{fill:none;stroke:#E51F82;stroke-width:1.5;stroke-miterlimit:10;}
	.st1{fill:none;stroke:#E51F82;stroke-miterlimit:10;}
</style>
<defs>
</defs>
<g>
	<g>
		<g>
			<g>
				<g>
					<path class="st0" d="M30.2,27l-3.1-3.1c-0.6-0.6-1.6-0.6-2.3,0l-1.6,1.6c-0.1-0.1-0.2-0.1-0.3-0.2c-1-0.5-2.3-1.3-3.8-2.7
						c-1.4-1.4-2.2-2.8-2.7-3.8c-0.1-0.1-0.1-0.2-0.2-0.3l1-1l0.5-0.5c0.6-0.6,0.7-1.7,0-2.3l-3.1-3.1c-0.6-0.6-1.6-0.6-2.3,0
						l-0.9,0.9l0,0c-0.3,0.4-0.5,0.8-0.7,1.3c-0.2,0.4-0.3,0.9-0.3,1.3c-0.4,3.4,1.1,6.5,5.4,10.7c5.8,5.8,10.5,5.4,10.7,5.4
						c0.4-0.1,0.9-0.2,1.3-0.3c0.5-0.2,0.9-0.4,1.3-0.7l0,0l0.9-0.9C30.8,28.7,30.9,27.7,30.2,27z"/>
				</g>
			</g>
		</g>
	</g>
	<circle class="st1" cx="21.5" cy="21.5" r="21"/>
</g>
</svg>
