<?xml version="1.0" encoding="utf-8"?>
<!-- Generator: Adobe Illustrator 18.0.0, SVG Export Plug-In . SVG Version: 6.00 Build 0)  -->
<!DOCTYPE svg PUBLIC "-//W3C//DTD SVG 1.1//EN" "http://www.w3.org/Graphics/SVG/1.1/DTD/svg11.dtd">
<svg version="1.1" id="Layer_1" xmlns="http://www.w3.org/2000/svg" xmlns:xlink="http://www.w3.org/1999/xlink" x="0px" y="0px"
	 viewBox="0 0 25.6 21.3" enable-background="new 0 0 25.6 21.3" xml:space="preserve">
<path opacity="0.2" fill="#6D6E70" d="M22.9,5.6c-0.2,8.8-5.7,14.9-14.1,15.3c-3.4,0.2-5.9-1-8.2-2.3C3.1,18.9,6.3,18,8,16.4
	c-2.5-0.2-4-1.5-4.8-3.6c0.8,0.2,1.5,0,2.1,0c-2.3-0.8-3.8-2.1-4-5.2C1.9,8,2.7,8.2,3.5,8.2c-1.7-1-2.9-4.6-1.5-6.9
	c2.5,2.7,5.5,5,10.5,5.3c-1.3-5.3,5.9-8.2,8.8-4.6c1.3-0.2,2.3-0.8,3.2-1.1c-0.4,1.3-1.1,2.1-2.1,2.9c1-0.2,1.9-0.4,2.7-0.8
	C24.8,4,23.9,4.8,22.9,5.6z"/>
</svg>
