<?xml version="1.0" encoding="utf-8"?>
<!-- Generator: Adobe Illustrator 18.0.0, SVG Export Plug-In . SVG Version: 6.00 Build 0)  -->
<!DOCTYPE svg PUBLIC "-//W3C//DTD SVG 1.1//EN" "http://www.w3.org/Graphics/SVG/1.1/DTD/svg11.dtd">
<svg version="1.1" id="Layer_1" xmlns="http://www.w3.org/2000/svg" xmlns:xlink="http://www.w3.org/1999/xlink" x="0px" y="0px"
	 viewBox="0 0 41 39" enable-background="new 0 0 41 39" xml:space="preserve">
<g>
	<g>
		<g>
			<path fill="#DB5442" d="M41,39H0V0h41V39z"/>
		</g>
	</g>
	<path fill="#FFFFFF" d="M23.9,15c0,1.2-0.7,2.2-1.7,2.9c-0.9,0.7-1.1,1-1.1,1.6c0,0.5,1.1,1.3,1.6,1.7c1.8,1.3,2.2,2.2,2.2,3.8
		c0,2.1-2.3,4.1-6,4.1c-3.3,0-6-1.3-6-3.4c0-2.1,2.3-4.3,5.5-4.3c0.4,0,0.7,0,1,0c-0.4-0.4-0.8-0.8-0.8-1.4c0-0.4,0.1-0.7,0.3-1.1
		c-0.2,0-0.4,0-0.5,0c-2.7,0-4.2-1.8-4.2-4.1c0-2.3,2.4-4.3,5.2-4.3c1.5,0,5.6,0,5.6,0l-1.3,1.3h-1.5C23.3,12.4,23.9,13.6,23.9,15z"
		/>
	<polygon fill="#FFFFFF" points="31.9,14.6 29.3,14.6 29.3,17.2 28,17.2 28,14.6 25.5,14.6 25.5,13.4 28,13.4 28,10.8 29.3,10.8 
		29.3,13.4 31.9,13.4 	"/>
	<path fill="#DB5442" d="M18.9,11.5c-1.5,0-2.5,1.4-2.2,3.4c0.3,1.9,1.7,3.3,3.2,3.3c1.5,0,2.3-1.2,2.1-3.1
		C21.6,13.1,20.4,11.5,18.9,11.5z"/>
	<path fill="#DB5442" d="M19.5,22.2c-2.2,0-4.1,1.4-4.1,3c0,1.7,1.6,3.1,3.8,3.1c3.1,0,4.2-1.3,4.2-3c0-0.2,0-0.4-0.1-0.6
		c-0.2-0.9-1.2-1.5-2.4-2.3C20.5,22.2,20,22.2,19.5,22.2z"/>
</g>
</svg>
