<?xml version="1.0" encoding="utf-8"?>
<!-- Generator: Adobe Illustrator 18.0.0, SVG Export Plug-In . SVG Version: 6.00 Build 0)  -->
<!DOCTYPE svg PUBLIC "-//W3C//DTD SVG 1.1//EN" "http://www.w3.org/Graphics/SVG/1.1/DTD/svg11.dtd">
<svg version="1.1" id="Layer_1" xmlns="http://www.w3.org/2000/svg" xmlns:xlink="http://www.w3.org/1999/xlink" x="0px" y="0px"
	 viewBox="0 0 41 39" enable-background="new 0 0 41 39" xml:space="preserve">
<g>
	<g>
		<path fill="#FFFFFF" d="M28.3,17.4L28.3,17.4C28.3,17.3,28.3,17.4,28.3,17.4L28.3,17.4z"/>
		<g>
			<path fill="#066C9A" d="M41,39H0V0h41V39z"/>
		</g>
	</g>
	<rect x="12.2" y="14.7" fill="#FFFFFF" width="4.1" height="12.1"/>
	<path fill="#FFFFFF" d="M14.2,13L14.2,13c-1.4,0-2.3-0.9-2.3-2.1c0-1.2,0.9-2.1,2.3-2.1c1.4,0,2.3,0.9,2.3,2.1
		C16.5,12.1,15.6,13,14.2,13z"/>
	<path fill="#FFFFFF" d="M30.9,26.8h-4.1v-6.5c0-1.6-0.6-2.7-2.1-2.7c-1.1,0-1.8,0.8-2.1,1.5c-0.1,0.3-0.1,0.6-0.1,1v6.7h-4.1
		c0,0,0.1-10.9,0-12.1h4.1v1.7c0.5-0.8,1.5-2,3.7-2c2.7,0,4.7,1.7,4.7,5.4V26.8z"/>
</g>
</svg>
