<?xml version="1.0" encoding="utf-8"?>
<!-- Generator: Adobe Illustrator 18.0.0, SVG Export Plug-In . SVG Version: 6.00 Build 0)  -->
<!DOCTYPE svg PUBLIC "-//W3C//DTD SVG 1.1//EN" "http://www.w3.org/Graphics/SVG/1.1/DTD/svg11.dtd">
<svg version="1.1" id="Layer_1" xmlns="http://www.w3.org/2000/svg" xmlns:xlink="http://www.w3.org/1999/xlink" x="0px" y="0px"
	 viewBox="0 0 41 39" enable-background="new 0 0 41 39" xml:space="preserve">
<g>
	<path fill="#CA2027" d="M41,39H0V0h41V39z M2,37h37V2H2V37z"/>
</g>
<path fill="#CA2027" d="M23.4,24.5c-1.2,0-2.3-0.6-2.7-1.3c0,0-0.6,2.5-0.8,3c-0.5,1.7-1.9,3.4-2,3.5c-0.1,0.1-0.2,0.1-0.3-0.1
	c0-0.2-0.4-2.4,0-4.1c0.2-0.9,1.4-5.9,1.4-5.9s-0.3-0.7-0.3-1.7c0-1.6,0.9-2.8,2.1-2.8c1,0,1.5,0.7,1.5,1.6c0,1-0.6,2.5-1,3.8
	c-0.3,1.1,0.6,2.1,1.7,2.1c2.1,0,3.5-2.6,3.5-5.7c0-2.4-1.6-4.1-4.5-4.1c-3.3,0-5.4,2.4-5.4,5.2c0,0.9,0.3,1.6,0.7,2.1
	c0.2,0.2,0.2,0.3,0.2,0.6c-0.1,0.2-0.2,0.7-0.2,0.9c-0.1,0.3-0.3,0.4-0.5,0.3c-1.5-0.6-2.2-2.3-2.2-4.1c0-3.1,2.6-6.7,7.8-6.7
	c4.2,0,6.9,3,6.9,6.2C29.3,21.4,26.9,24.5,23.4,24.5z"/>
</svg>
