<?xml version="1.0" encoding="utf-8"?>
<!-- Generator: Adobe Illustrator 18.0.0, SVG Export Plug-In . SVG Version: 6.00 Build 0)  -->
<!DOCTYPE svg PUBLIC "-//W3C//DTD SVG 1.1//EN" "http://www.w3.org/Graphics/SVG/1.1/DTD/svg11.dtd">
<svg version="1.1" id="Layer_1" xmlns="http://www.w3.org/2000/svg" xmlns:xlink="http://www.w3.org/1999/xlink" x="0px" y="0px"
	 viewBox="0 0 41 39" enable-background="new 0 0 41 39" xml:space="preserve">
<g>
	<g>
		<path fill="#2AA9E0" d="M41,39H0V0h41V39z M2,37h37V2H2V37z"/>
	</g>
	<path fill="#2AA9E0" d="M28.7,16.1c0,0.2,0,0.3,0,0.5c0,5.1-3.9,10.9-11.1,10.9c-2.2,0-4.2-0.6-6-1.7c0.3,0,0.6,0.1,0.9,0.1
		c1.8,0,3.5-0.6,4.8-1.6c-1.7,0-3.1-1.1-3.6-2.7c0.2,0,0.5,0.1,0.7,0.1c0.4,0,0.7,0,1-0.1c-1.8-0.4-3.1-1.9-3.1-3.8c0,0,0,0,0,0
		c0.5,0.3,1.1,0.5,1.8,0.5c-1-0.7-1.7-1.9-1.7-3.2c0-0.7,0.2-1.4,0.5-1.9c1.9,2.3,4.8,3.9,8,4c-0.1-0.3-0.1-0.6-0.1-0.9
		c0-2.1,1.7-3.8,3.9-3.8c1.1,0,2.1,0.5,2.8,1.2c0.9-0.2,1.7-0.5,2.5-0.9c-0.3,0.9-0.9,1.7-1.7,2.1c0.8-0.1,1.5-0.3,2.2-0.6
		C30.1,14.9,29.4,15.5,28.7,16.1z"/>
</g>
</svg>
